<?xml version="1.0" encoding="UTF-8"?>
<!DOCTYPE svg PUBLIC "-//W3C//DTD SVG 1.1//EN" "http://www.w3.org/Graphics/SVG/1.1/DTD/svg11.dtd">
<!-- Creator: CorelDRAW X6 -->
<svg xmlns="http://www.w3.org/2000/svg" xml:space="preserve" width="1000mm" height="245mm" version="1.1" style="shape-rendering:geometricPrecision; text-rendering:geometricPrecision; image-rendering:optimizeQuality; fill-rule:evenodd; clip-rule:evenodd"
viewBox="0 0 100000 24500"
 xmlns:xlink="http://www.w3.org/1999/xlink">
 <defs>
  <style type="text/css">
   <![CDATA[
    .fil1 {fill:#FEFEFE}
    .fil0 {fill:#FF6600}
    .fil2 {fill:#FF6600;fill-rule:nonzero}
   ]]>
  </style>
 </defs>
 <g id="Слой_x0020_1">
  <metadata id="CorelCorpID_0Corel-Layer"/>
  <path class="fil0" d="M49672 2272c116,438 898,1369 951,2555 183,92 354,194 512,309 1491,1087 499,3498 -842,4113l0 3883c16,65 35,125 53,184l46 68c209,307 400,588 506,958 221,335 383,661 288,1322 -83,573 -377,1013 -781,1297 -153,212 -331,401 -529,565 -46,38 -93,75 -142,110 662,1070 1811,1736 3672,1736 3854,0 7012,-618 10737,-32 1941,306 3819,-398 3749,-2082 -1104,-527 -2017,-1266 -2535,-2189 -304,-287 -541,-610 -695,-966 -778,-2836 -93,-5263 1439,-6808 163,-239 338,-467 527,-683 232,-3352 186,-6560 -3287,-6560 -1531,0 -10875,-29 -11289,1158 -246,703 -2816,-482 -2380,1062z"/>
  <path class="fil1" d="M63051 2897c653,743 -118,1501 0,2587 105,957 793,1442 587,2217 -194,731 -852,1245 -1761,1108 -2337,-354 -259,-2735 -391,-4618 -1319,-135 -3882,148 -5475,370 -528,1516 7,3541 0,5173 2614,653 5936,99 7039,1847 878,1392 572,3264 0,4249 -1543,2656 -6257,892 -9386,1662 -47,-309 -682,-580 -783,-924 -254,-876 474,-1434 587,-2402 92,-782 -236,-1522 -195,-2402 16,-360 327,-731 391,-1109 373,-2216 -263,-5090 -783,-6650 1524,-2404 7419,138 10168,-1109zm-7039 9052c-331,735 -154,1949 -195,2956 1468,218 3241,909 4888,370 602,-550 976,-1410 587,-2402 -1203,-834 -3207,-911 -5279,-924z"/>
  <path class="fil2" d="M13274 13737c-441,-797 -1193,-1416 -2071,-1541 -1746,-250 -2432,441 -3118,1133 -249,250 -498,501 -831,522 -859,52 -1660,-512 -2161,-1192 -106,-143 -194,-284 -263,-419 -70,-137 -125,-270 -162,-393l0 -4 -2 -6 -1 0c-183,-625 -253,-1241 -219,-1822 50,-884 339,-1686 821,-2315 463,-604 1106,-1051 1888,-1256 390,-102 820,-147 1284,-123 335,17 699,166 1062,315 1000,409 1994,817 3553,150l375 -161 172 -348c372,-754 364,-1761 131,-2540 -48,-162 -103,-312 -164,-446 -65,-143 -145,-284 -239,-420l-4 -12 -1 -1 -58 -83 -97 -88c-173,-158 -378,-287 -602,-386 -486,-216 -1105,-311 -1674,-269 -550,41 -1093,211 -1501,523 -3598,-128 -6003,944 -7494,2937 -1254,1676 -1786,3972 -1790,6723l0 75c1,503 19,1021 54,1554l18 290 175 239c562,766 1247,1604 2123,2317 924,752 2054,1365 3463,1624 1067,197 1620,49 2312,-135 313,-83 665,-177 1136,-222 426,-41 796,3 1104,40 600,73 1065,129 1640,-154 939,-463 1408,-1211 1538,-2022 58,-360 43,-732 -30,-1091 -69,-342 -196,-679 -368,-990zm-1648 3184c-508,251 -1192,-112 -2346,0 -1459,142 -1794,615 -3129,369 -2381,-438 -3857,-2104 -4888,-3510 -426,-6499 1658,-10626 8604,-10161 351,-705 1961,-713 2542,-185 386,559 552,1678 196,2402 -1777,761 -2676,-482 -4106,-554 -3748,-189 -5956,3203 -4889,6835 393,1337 1916,2879 3715,2771 1713,-103 1581,-1968 3715,-1662 1394,199 2402,2799 586,3694z"/>
  <path class="fil2" d="M88111 7911l-23 -144 -63 -129c-160,-331 -371,-631 -623,-900 -809,-866 -2041,-1399 -3348,-1580 -1213,-168 -2523,-37 -3630,409 -794,-1896 -3863,-1793 -3480,280l21 110 53 117c231,513 59,2565 -126,4779 -322,3851 -679,8115 1484,8574 1670,355 2264,-418 2539,-1575 74,-308 108,-617 142,-933 9,-83 18,-168 28,-250 357,-18 705,-52 1040,-101 1883,-279 3386,-1043 4444,-2204 1050,-1153 1634,-2676 1685,-4484 18,-623 -29,-1281 -144,-1971zm-7929 7733c-429,1166 63,3117 -1565,2771 -2071,-440 246,-10899 -586,-12747 -302,-1633 1931,-324 1760,1478 1986,-1657 6179,-1253 7235,924 778,4690 -1877,7700 -6844,7574z"/>
  <path class="fil2" d="M84288 7330c-1510,-371 -3899,235 -4302,2402 2450,-79 2944,3522 0,3325 -249,1577 3673,440 4302,0 1693,-1186 2509,-5110 0,-5727zm358 3235c-194,705 -566,1344 -1014,1657 -196,137 -436,227 -712,298 130,-312 193,-644 191,-978 -3,-417 -103,-837 -293,-1218 -270,-540 -717,-1015 -1316,-1311 187,-208 419,-367 670,-483 539,-248 1161,-310 1675,-224 79,13 133,23 164,31 223,55 385,162 494,301 150,191 233,458 262,760 34,366 -12,771 -122,1169z"/>
  <path class="fil2" d="M26366 6682c-138,-823 -530,-1577 -1214,-1989 -154,-93 -312,-166 -471,-216l-69 -16c-1003,-247 -1444,25 -1885,297l1 2c-6,4 -10,8 -13,12 -1467,-491 -3097,-379 -4741,-267 -1260,86 -2528,172 -3558,-51l-2 -1 -543 -118 -422 346c-188,154 -355,342 -499,557 -401,593 -638,1433 -652,2239 -16,858 217,1728 763,2321 148,161 320,304 518,423l294 178 344 -15c1118,-47 1712,-474 2307,-901 233,-168 466,-336 786,-417 -25,545 -44,1111 -64,1677 -40,1167 -81,2335 -194,3449 -137,48 -288,98 -441,148l0 4c-225,73 -454,148 -638,216 -1431,525 -2603,1275 -1850,3105l194 470 504 149c1046,308 1806,-24 2613,-375 1188,-518 2628,-601 3828,-634 945,-26 1890,-52 2453,-917l172 -265 -13 -317c-57,-1393 -1003,-1585 -1951,-1773l0 -4940c501,775 1086,1476 2845,1117l515 -105 188 25 381 -565c148,-217 264,-455 350,-701 224,-640 286,-1438 167,-2151zm-1443 2294c-106,110 -249,144 -391,185 -1663,340 -1586,-965 -2346,-1478 -617,-90 -690,333 -1369,185l0 6835c538,477 1917,160 1955,1109 -521,801 -2709,27 -3129,923 -1949,-831 -3046,982 -4497,554 -685,-1666 1865,-1786 2934,-2402 275,-2141 227,-4588 391,-6835 -2412,-493 -2491,1218 -4302,1293 -1141,-688 -915,-3130 0,-3879 2635,573 6034,-569 8408,370 799,77 790,-608 1760,-370 1136,355 1241,2541 586,3510z"/>
  <path class="fil2" d="M99306 10372l-49 -265c-50,-272 -90,-586 -131,-913 -267,-2115 -583,-4623 -3587,-4380l-298 24 -245 163c-786,523 -888,1336 -874,2197 -866,720 -1357,1669 -1848,2618l-60 115c-135,-615 -288,-1212 -441,-1808 -193,-749 -386,-1499 -537,-2275 -62,-327 -737,-960 -1225,-849l-1634 229c-127,60 -256,144 -392,280l-238 240 -51 318c-358,2247 -24,5299 515,7949 102,503 214,998 330,1476 317,1304 1190,2644 2846,2273l166 -37 149 -85c464,-265 847,-624 1092,-1136 167,-347 258,-751 252,-1227 714,-779 1232,-1681 1730,-2595 52,850 118,1695 325,2424 467,1649 1458,2673 3747,2093l630 -160 154 -601c467,-1823 42,-4101 -324,-6070zm-744 5826c-3602,911 -2185,-4442 -3129,-6650 -1326,1641 -1988,3910 -3520,5357 142,995 -213,1522 -783,1847 -598,134 -892,62 -1173,-185 -833,-2899 -1643,-7401 -1174,-10345 492,-496 784,-161 1369,-185 433,2238 1187,4174 1369,6650 1677,-1248 1904,-3867 3715,-4988 -32,-770 -67,-1542 391,-1848 2349,-190 2223,2713 2542,4434 358,1931 821,4229 391,5911z"/>
  <path class="fil2" d="M32940 9161c-1090,-677 -2991,-1065 -3911,0 -394,2235 -1197,4460 1173,4803 872,126 2140,-491 3129,-924 397,-1174 260,-3114 -391,-3879zm-498 2686c-10,157 -30,313 -58,465 -751,332 -1586,683 -2015,622l-3 0c-748,-108 -748,-843 -600,-1754 58,-361 119,-664 181,-972 35,-178 71,-358 104,-532 360,-215 947,-165 1489,-1 137,41 281,96 428,162 68,30 134,63 199,98 233,401 324,1174 274,1912z"/>
  <path class="fil2" d="M37101 10183c-35,-315 -86,-613 -155,-886l0 -2 0 -4c-540,-2150 -2733,-3567 -4997,-3947 -417,-70 -850,-104 -1291,-101 -436,3 -867,47 -1278,133l-2 0c-1964,413 -3325,1759 -4037,3414 -409,950 -601,2010 -566,3048 35,1054 306,2091 822,2976 797,1366 2147,2376 4088,2585 1028,110 2845,32 4351,-641 304,-135 603,-301 892,-499 295,-203 565,-433 798,-692l5 -5 4 -4c923,-1027 1408,-2816 1413,-4458 1,-320 -15,-629 -47,-919zm-2206 4705c-1286,1431 -3842,1612 -5084,1478 -5404,-582 -5037,-8958 -196,-9975 2403,-505 5662,765 6258,3141 426,1702 70,4191 -978,5357z"/>
  <path class="fil2" d="M50638 6544l-85 -373 -320 -233c-1480,-1079 -4291,-910 -6481,-778l-126 8c-1005,60 -2166,152 -3163,416 -1264,334 -2263,940 -2533,2053l-126 520 376 400c728,774 1813,812 2900,845 19,269 44,541 67,819 97,1133 205,2398 99,3367 -74,-117 -164,-231 -271,-338l-2 1 -52 -52c-800,-699 -2218,-759 -3310,-523 -188,41 -380,94 -568,158 -193,66 -371,140 -524,219l-1 -1 -1 1 -333 173 -149 332c-274,608 -357,1558 -246,2322 24,165 54,317 90,449 39,146 90,294 156,440l0 4 1 1 293 647 740 -16c749,-16 1153,351 1536,700 639,582 1250,1138 2544,1147 2013,14 3115,-1106 3675,-2756l0 0c573,620 1292,958 2009,1050 416,54 827,25 1209,-79 392,-107 760,-294 1076,-555 492,-408 843,-984 946,-1701 149,-1030 -141,-1456 -489,-1968 -99,-145 -208,-305 -280,-512l0 -3674c894,-387 1725,-840 1342,-2514zm-2446 1879l0 4433c274,1075 943,1106 782,2217 -221,1532 -2166,1988 -3324,739 -193,-1289 239,-1991 782,-2586 150,-1867 -295,-3170 -196,-4988 -517,-354 -1795,-192 -2346,0 414,3698 1091,10003 -2738,9976 -1815,-12 -1838,-1896 -4106,-1848 -278,-618 -278,-1783 0,-2401 751,-394 2432,-609 3128,0 538,533 247,1777 391,2217 2688,-544 1619,-5186 1564,-7759 -1102,-130 -2547,65 -3129,-554 320,-1320 2792,-1548 4693,-1663 2027,-122 4692,-302 5866,554 287,1256 -755,1257 -1369,1663z"/>
  <path class="fil2" d="M75875 7708c-1613,-1117 -5330,-1320 -6253,731 1986,15 5416,831 6253,-731z"/>
  <path class="fil2" d="M76853 11795l-496 -228c-242,-111 -466,-181 -676,-217 1434,-411 2332,-1344 2075,-3401 -87,-1027 -1753,-2105 -2657,-2403l-13 -4 -28 -9 -35 -12 -26 -8 -3 0c-1600,-551 -3151,-610 -4521,-275 -1040,255 -1971,733 -2738,1395 -765,659 -1368,1500 -1756,2482 -556,1407 -665,3098 -159,4942l23 83 20 47c715,1658 2866,2696 5060,2921 869,89 1752,56 2558,-111 864,-179 1655,-514 2277,-1022 1014,-827 1547,-2038 1203,-3672l-107 -509zm-9969 2001c-1461,-5325 2820,-9043 7797,-7286 61,16 135,44 217,80l3 1c456,202 1779,891 1760,1478 489,3911 -5334,1857 -8017,2771 -149,2602 1609,3414 3716,3140 1566,-203 2284,-2045 3519,-1477 1001,4755 -7645,4420 -8995,1293zm7487 -2212c-339,180 -659,434 -993,700 -370,294 -775,616 -1165,667 -277,36 -544,49 -795,36 -459,-24 -852,-135 -1132,-354 -254,-199 -436,-515 -512,-969 642,-71 1429,-56 2215,-40 820,16 1642,32 2382,-39z"/>
  <path class="fil0" d="M19317 20941c-676,274 -945,-169 -1489,-94 -1380,191 -1651,2523 0,2625 512,-17 425,-599 1092,-469 246,142 352,417 298,844 -898,624 -2531,335 -3076,-563 -188,-1859 377,-2866 2381,-2906 203,-4 961,-427 794,563z"/>
  <path class="fil0" d="M39262 20566c-246,736 -1652,376 -2580,468 -233,312 67,768 99,1125 572,-557 2003,-454 2381,188 343,1482 -1393,1957 -2381,1312 -325,-944 -267,-1727 -397,-2906 623,-309 2445,-588 2878,-187zm-2382 2624c206,769 1956,523 1786,-656 -616,-813 -1986,-92 -1786,656z"/>
  <path class="fil0" d="M74587 20753c-5,161 74,243 199,281 22,334 -67,562 -298,656 2025,1029 -1655,3180 -1985,1687 -83,-378 102,-551 397,-750 580,-48 640,396 794,750 393,-160 758,-346 893,-750 -113,-617 -717,-586 -1389,-469 -224,-929 1278,-229 1290,-937 -507,-797 -1159,216 -1687,281 -525,-1076 1038,-825 1786,-750z"/>
  <path class="fil0" d="M29934 20753c822,224 1045,1013 1488,1594 654,-165 689,-1410 1290,-1313 376,255 175,1038 199,1594 23,531 386,1311 -199,1406 -627,-220 -147,-1486 -297,-2157 -514,265 -436,1088 -893,1406 -651,-10 -490,-787 -993,-937 -192,900 304,1151 298,1875 -175,254 -818,254 -993,0 246,-643 310,-1457 397,-2250 -94,-380 -625,-741 -298,-1219z"/>
  <path class="fil0" d="M51070 20753c199,703 610,2695 0,3281 -580,17 -353,-729 -397,-1219 -243,-161 -663,136 -1092,94 -28,454 219,751 0,1125 -263,-1 -566,35 -694,-94 -48,-358 28,-598 199,-750 -32,-220 -307,-209 -397,-375 -84,-392 269,-371 397,-563 119,-613 -201,-811 -199,-1312 117,-108 351,-106 595,-94 238,437 -88,829 99,1312 137,153 631,-148 993,-94 56,-541 -228,-1403 496,-1313z"/>
  <path class="fil0" d="M56924 21878c370,-275 724,-566 794,-1125 941,321 -314,992 -497,1406 365,593 1159,780 1191,1687 -787,283 -1045,-600 -1488,-937 -548,156 -184,1616 -1092,1125 22,-635 580,-765 695,-1312 -231,-625 -737,-991 -1389,-1219 139,-1673 1375,52 1786,375z"/>
  <path class="fil0" d="M60198 20753c942,173 1021,1161 1687,1594 429,-408 550,-1106 1091,-1406 311,665 499,2374 99,3094 -807,-81 -215,-1484 -397,-2157 -381,360 -484,981 -794,1406 -722,26 -522,-819 -1092,-937 35,716 290,1226 298,1968 -160,141 -732,141 -893,0 75,-769 424,-1549 298,-2343 -76,-476 -610,-805 -298,-1219z"/>
  <path class="fil0" d="M80540 20753c344,-74 419,104 595,188 -264,852 255,2161 0,3000 -290,84 -305,84 -595,0 78,-480 -139,-681 -99,-1125 -137,-154 -632,148 -993,94 -36,372 91,898 -99,1125l-595 0c-309,-492 400,-952 -198,-1219 -142,-310 229,-287 297,-563 111,-447 -230,-1018 0,-1406 934,-82 383,663 496,1312 227,123 809,-67 1092,-187 40,-400 -97,-966 99,-1219z"/>
  <path class="fil0" d="M25668 20941c149,322 185,946 -199,1031 -477,44 -254,-573 -794,-469 -230,439 -34,1280 -99,1875 9,304 592,66 496,469 -930,94 -1304,139 -2084,375 -76,-540 376,-583 794,-657 84,-608 129,-1252 100,-1968 -676,-139 -656,381 -1191,375 -256,-149 -306,-890 0,-1031 719,-68 2195,87 2977,0z"/>
  <path class="fil0" d="M26362 20942c346,48 146,612 199,937 2028,-381 1996,2656 0,1969 -698,-758 -573,-1896 -199,-2906zm497 2437c362,61 529,-63 694,-188 1,-531 -294,-784 -893,-750 -188,247 77,691 199,938z"/>
  <path class="fil0" d="M46704 20942c346,48 145,612 199,937 2028,-381 1996,2656 0,1969 -698,-758 -573,-1896 -199,-2906zm496 2437c362,61 529,-63 695,-188 0,-531 -295,-784 -893,-750 -189,247 77,691 199,938z"/>
  <path class="fil0" d="M65854 21035c633,599 190,1776 199,2812 -321,53 -499,-29 -596,-188 -248,78 -389,257 -694,281 -1741,-186 -601,-2514 992,-1687 674,-698 -547,-1323 -1190,-844 -340,-8 -58,571 -397,563l-397 0c-114,-111 -113,-332 -99,-563 769,-59 1291,-731 2183,-375zm-1588 2250c118,46 225,100 298,188 633,-27 843,-453 992,-938 -674,19 -1429,-38 -1290,750z"/>
  <path class="fil0" d="M72106 23847c-597,-136 -700,-183 -1190,94 -1872,-154 -663,-2491 991,-1687 508,-902 -622,-1241 -1290,-843 -149,297 -188,697 -793,562 -104,-266 -104,-391 0,-656 890,91 978,-576 1984,-375 848,461 381,2255 298,2906zm-1786 -563c62,130 382,15 397,188 564,-92 779,-514 992,-938 -747,-18 -1433,21 -1389,750z"/>
  <path class="fil0" d="M52260 21035c507,-42 224,663 297,1031 1493,-594 1954,1224 1092,1781 -1526,985 -2452,-1520 -1389,-2812zm397 2343c551,-10 916,-197 893,-750 -649,-404 -1521,197 -893,750z"/>
  <path class="fil0" d="M54443 21035c160,-26 171,89 298,94 303,663 384,2567 -99,3094 -708,-372 -441,-2525 -199,-3187z"/>
  <path class="fil0" d="M69327 21035l0 562c-484,376 -1102,-191 -1984,0 -66,782 131,1812 -100,2438 -681,-481 13,-2262 -495,-2906 918,24 1778,-8 2579,-94z"/>
  <path class="fil0" d="M75480 21035c644,235 460,1252 695,1875 515,-514 792,-1251 1190,-1875 650,-12 505,806 596,1313 91,513 367,1170 99,1593l-496 0c-135,-591 -242,-1208 -297,-1875 -421,633 -828,1280 -1191,1968 -730,93 -498,-1036 -595,-1687 -68,-455 -348,-903 0,-1313z"/>
  <path class="fil0" d="M22294 22160c-431,375 -1580,70 -2183,281 -60,1252 1329,772 2084,469 -65,1643 -2531,983 -2679,94 -141,-845 543,-1746 1191,-1875 937,-186 1770,63 1588,1031zm-1885 -375c545,-47 1300,103 1686,-94 -73,-661 -1647,-419 -1686,94z"/>
  <path class="fil0" d="M36086 22160c-431,375 -1579,70 -2183,281 -60,1252 1329,772 2084,469 -64,1643 -2531,983 -2679,94 -141,-845 544,-1746 1191,-1875 938,-186 1770,63 1588,1031zm-1885 -375c546,-47 1300,103 1687,-94 -74,-661 -1648,-419 -1687,94z"/>
  <path class="fil0" d="M40154 22441c-40,470 121,735 397,844 577,226 1121,-388 1588,-375 284,1257 -2188,1263 -2580,281 -751,-1835 2286,-2790 2778,-1594 420,1018 -1375,653 -2183,844zm199 -656c537,-118 1614,274 1686,-281 -421,-401 -1529,-155 -1686,281z"/>
  <path class="fil0" d="M46009 21222c263,275 -244,393 -397,563 -133,844 215,1234 297,1875 -214,207 -515,388 -893,187 -87,-631 407,-1343 99,-2250 -263,1 -566,-35 -694,94 136,829 252,2163 -298,2625 -822,120 -990,-376 -1588,-469l0 -562c540,-398 1085,-54 1092,562 683,-301 442,-1274 397,-2062 -126,-225 -782,52 -893,-188 342,-647 2034,-515 2878,-375z"/>
  <path class="fil0" d="M84013 23566c-711,450 -1920,472 -2382,-188 -1031,-2327 2273,-2989 2679,-1312 129,533 -116,1000 -297,1500zm-1588 -375c380,163 826,-65 1191,-188l0 -937c-747,-964 -1833,308 -1191,1124z"/>
  <path class="fil0" d="M86692 20941c59,339 164,626 -99,844 1341,1198 -795,2460 -1985,1500l0 -2062c540,-227 1417,-752 2084,-281zm-1488 844c377,-176 1268,136 1092,-563 -440,115 -1199,-70 -1092,563zm99 937c145,475 1455,384 1389,-187 -229,-655 -1077,-140 -1389,187z"/>
 </g>
</svg>
